<?xml version="1.0" encoding="UTF-8"?><svg xmlns="http://www.w3.org/2000/svg" xmlns:xlink="http://www.w3.org/1999/xlink" stroke-dasharray="none" shape-rendering="auto" font-family="'Dialog'" width="768" text-rendering="auto" fill-opacity="1" contentScriptType="text/ecmascript" color-interpolation="auto" color-rendering="auto" preserveAspectRatio="xMidYMid meet" font-size="12" fill="black" stroke="black" image-rendering="auto" stroke-miterlimit="10" zoomAndPan="magnify" version="1.0" stroke-linecap="square" stroke-linejoin="miter" contentStyleType="text/css" font-style="normal" height="576" stroke-width="1" stroke-dashoffset="0" font-weight="normal" stroke-opacity="1">
<!--Generated by the Batik Graphics2D SVG Generator-->
<defs id="genericDefs"/>
<g>
<defs id="defs1">
<clipPath clipPathUnits="userSpaceOnUse" id="clipPath1">
<path d="M28 38 L740 38 L740 553 L28 553 L28 38 Z"/>
</clipPath>
<clipPath clipPathUnits="userSpaceOnUse" id="clipPath2">
<path d="M-1 -1 L769 -1 L769 577 L-1 577 L-1 -1 Z"/>
</clipPath>
<clipPath clipPathUnits="userSpaceOnUse" id="clipPath3">
<path d="M378 4 L391 4 L391 12 L378 12 L378 4 Z"/>
</clipPath>
</defs>
<g fill="white" text-rendering="geometricPrecision" font-family="'Segoe UI'" stroke-linejoin="round" stroke="white" stroke-width="0" stroke-miterlimit="0">
<rect x="29" y="39" clip-path="url(#clipPath1)" width="710" height="513" stroke="none"/>
</g>
<g stroke-linecap="butt" fill="rgb(204,204,204)" text-rendering="geometricPrecision" font-family="'Segoe UI'" stroke-dasharray="3,3" stroke="rgb(204,204,204)">
<line clip-path="url(#clipPath1)" fill="none" x1="29" x2="29" y1="39" y2="552"/>
<line clip-path="url(#clipPath1)" fill="none" x1="99" x2="99" y1="39" y2="552"/>
<line clip-path="url(#clipPath1)" fill="none" x1="169" x2="169" y1="39" y2="552"/>
<line clip-path="url(#clipPath1)" fill="none" x1="239" x2="239" y1="39" y2="552"/>
<line clip-path="url(#clipPath1)" fill="none" x1="309" x2="309" y1="39" y2="552"/>
<line clip-path="url(#clipPath1)" fill="none" x1="379" x2="379" y1="39" y2="552"/>
<line clip-path="url(#clipPath1)" fill="none" x1="449" x2="449" y1="39" y2="552"/>
<line clip-path="url(#clipPath1)" fill="none" x1="519" x2="519" y1="39" y2="552"/>
<line clip-path="url(#clipPath1)" fill="none" x1="589" x2="589" y1="39" y2="552"/>
<line clip-path="url(#clipPath1)" fill="none" x1="660" x2="660" y1="39" y2="552"/>
<line clip-path="url(#clipPath1)" fill="none" x1="730" x2="730" y1="39" y2="552"/>
<line clip-path="url(#clipPath1)" fill="none" x1="29" x2="739" y1="552" y2="552"/>
<line clip-path="url(#clipPath1)" fill="none" x1="29" x2="739" y1="475" y2="475"/>
<line clip-path="url(#clipPath1)" fill="none" x1="29" x2="739" y1="398" y2="398"/>
<line clip-path="url(#clipPath1)" fill="none" x1="29" x2="739" y1="321" y2="321"/>
<line clip-path="url(#clipPath1)" fill="none" x1="29" x2="739" y1="244" y2="244"/>
<line clip-path="url(#clipPath1)" fill="none" x1="29" x2="739" y1="167" y2="167"/>
<line clip-path="url(#clipPath1)" fill="none" x1="29" x2="739" y1="90" y2="90"/>
<rect x="29" y="39" clip-path="url(#clipPath2)" fill="none" width="710" stroke-dasharray="none" height="513" stroke="black"/>
<rect x="379" y="5" clip-path="url(#clipPath3)" fill="white" width="10" stroke-dasharray="none" height="5" stroke="none"/>
</g>
<g text-rendering="geometricPrecision" font-size="13" font-family="'Arial'" stroke-linecap="butt">
<line clip-path="url(#clipPath2)" fill="none" x1="29" x2="739" y1="37" y2="37"/>
<line clip-path="url(#clipPath2)" fill="none" x1="29" x2="739" y1="554" y2="554"/>
<line clip-path="url(#clipPath2)" fill="none" x1="29" x2="29" y1="33" y2="37"/>
<line clip-path="url(#clipPath2)" fill="none" x1="29" x2="29" y1="558" y2="554"/>
<text font-size="11" x="23" y="29" clip-path="url(#clipPath2)" stroke="none" xml:space="preserve">0.0</text>
<text font-size="11" x="23" y="570" clip-path="url(#clipPath2)" stroke="none" xml:space="preserve">0.0</text>
<line clip-path="url(#clipPath2)" fill="none" x1="43" x2="43" y1="35" y2="37"/>
<line clip-path="url(#clipPath2)" fill="none" x1="43" x2="43" y1="556" y2="554"/>
<line clip-path="url(#clipPath2)" fill="none" x1="57" x2="57" y1="35" y2="37"/>
<line clip-path="url(#clipPath2)" fill="none" x1="57" x2="57" y1="556" y2="554"/>
<line clip-path="url(#clipPath2)" fill="none" x1="71" x2="71" y1="35" y2="37"/>
<line clip-path="url(#clipPath2)" fill="none" x1="71" x2="71" y1="556" y2="554"/>
<line clip-path="url(#clipPath2)" fill="none" x1="85" x2="85" y1="35" y2="37"/>
<line clip-path="url(#clipPath2)" fill="none" x1="85" x2="85" y1="556" y2="554"/>
<line clip-path="url(#clipPath2)" fill="none" x1="99" x2="99" y1="33" y2="37"/>
<line clip-path="url(#clipPath2)" fill="none" x1="99" x2="99" y1="558" y2="554"/>
<text font-size="11" x="90" y="29" clip-path="url(#clipPath2)" stroke="none" xml:space="preserve">0.10</text>
<text font-size="11" x="90" y="570" clip-path="url(#clipPath2)" stroke="none" xml:space="preserve">0.10</text>
<line clip-path="url(#clipPath2)" fill="none" x1="113" x2="113" y1="35" y2="37"/>
<line clip-path="url(#clipPath2)" fill="none" x1="113" x2="113" y1="556" y2="554"/>
<line clip-path="url(#clipPath2)" fill="none" x1="127" x2="127" y1="35" y2="37"/>
<line clip-path="url(#clipPath2)" fill="none" x1="127" x2="127" y1="556" y2="554"/>
<line clip-path="url(#clipPath2)" fill="none" x1="141" x2="141" y1="35" y2="37"/>
<line clip-path="url(#clipPath2)" fill="none" x1="141" x2="141" y1="556" y2="554"/>
<line clip-path="url(#clipPath2)" fill="none" x1="155" x2="155" y1="35" y2="37"/>
<line clip-path="url(#clipPath2)" fill="none" x1="155" x2="155" y1="556" y2="554"/>
<line clip-path="url(#clipPath2)" fill="none" x1="169" x2="169" y1="33" y2="37"/>
<line clip-path="url(#clipPath2)" fill="none" x1="169" x2="169" y1="558" y2="554"/>
<text font-size="11" x="160" y="29" clip-path="url(#clipPath2)" stroke="none" xml:space="preserve">0.20</text>
<text font-size="11" x="160" y="570" clip-path="url(#clipPath2)" stroke="none" xml:space="preserve">0.20</text>
<line clip-path="url(#clipPath2)" fill="none" x1="183" x2="183" y1="35" y2="37"/>
<line clip-path="url(#clipPath2)" fill="none" x1="183" x2="183" y1="556" y2="554"/>
<line clip-path="url(#clipPath2)" fill="none" x1="197" x2="197" y1="35" y2="37"/>
<line clip-path="url(#clipPath2)" fill="none" x1="197" x2="197" y1="556" y2="554"/>
<line clip-path="url(#clipPath2)" fill="none" x1="211" x2="211" y1="35" y2="37"/>
<line clip-path="url(#clipPath2)" fill="none" x1="211" x2="211" y1="556" y2="554"/>
<line clip-path="url(#clipPath2)" fill="none" x1="225" x2="225" y1="35" y2="37"/>
<line clip-path="url(#clipPath2)" fill="none" x1="225" x2="225" y1="556" y2="554"/>
<line clip-path="url(#clipPath2)" fill="none" x1="239" x2="239" y1="33" y2="37"/>
<line clip-path="url(#clipPath2)" fill="none" x1="239" x2="239" y1="558" y2="554"/>
<text font-size="11" x="230" y="29" clip-path="url(#clipPath2)" stroke="none" xml:space="preserve">0.30</text>
<text font-size="11" x="230" y="570" clip-path="url(#clipPath2)" stroke="none" xml:space="preserve">0.30</text>
<line clip-path="url(#clipPath2)" fill="none" x1="253" x2="253" y1="35" y2="37"/>
<line clip-path="url(#clipPath2)" fill="none" x1="253" x2="253" y1="556" y2="554"/>
<line clip-path="url(#clipPath2)" fill="none" x1="267" x2="267" y1="35" y2="37"/>
<line clip-path="url(#clipPath2)" fill="none" x1="267" x2="267" y1="556" y2="554"/>
<line clip-path="url(#clipPath2)" fill="none" x1="281" x2="281" y1="35" y2="37"/>
<line clip-path="url(#clipPath2)" fill="none" x1="281" x2="281" y1="556" y2="554"/>
<line clip-path="url(#clipPath2)" fill="none" x1="295" x2="295" y1="35" y2="37"/>
<line clip-path="url(#clipPath2)" fill="none" x1="295" x2="295" y1="556" y2="554"/>
<line clip-path="url(#clipPath2)" fill="none" x1="309" x2="309" y1="33" y2="37"/>
<line clip-path="url(#clipPath2)" fill="none" x1="309" x2="309" y1="558" y2="554"/>
<text font-size="11" x="300" y="29" clip-path="url(#clipPath2)" stroke="none" xml:space="preserve">0.40</text>
<text font-size="11" x="300" y="570" clip-path="url(#clipPath2)" stroke="none" xml:space="preserve">0.40</text>
<line clip-path="url(#clipPath2)" fill="none" x1="323" x2="323" y1="35" y2="37"/>
<line clip-path="url(#clipPath2)" fill="none" x1="323" x2="323" y1="556" y2="554"/>
<line clip-path="url(#clipPath2)" fill="none" x1="337" x2="337" y1="35" y2="37"/>
<line clip-path="url(#clipPath2)" fill="none" x1="337" x2="337" y1="556" y2="554"/>
<line clip-path="url(#clipPath2)" fill="none" x1="351" x2="351" y1="35" y2="37"/>
<line clip-path="url(#clipPath2)" fill="none" x1="351" x2="351" y1="556" y2="554"/>
<line clip-path="url(#clipPath2)" fill="none" x1="365" x2="365" y1="35" y2="37"/>
<line clip-path="url(#clipPath2)" fill="none" x1="365" x2="365" y1="556" y2="554"/>
<line clip-path="url(#clipPath2)" fill="none" x1="379" x2="379" y1="33" y2="37"/>
<line clip-path="url(#clipPath2)" fill="none" x1="379" x2="379" y1="558" y2="554"/>
<text font-size="11" x="370" y="29" clip-path="url(#clipPath2)" stroke="none" xml:space="preserve">0.50</text>
<text font-size="11" x="370" y="570" clip-path="url(#clipPath2)" stroke="none" xml:space="preserve">0.50</text>
<line clip-path="url(#clipPath2)" fill="none" x1="393" x2="393" y1="35" y2="37"/>
<line clip-path="url(#clipPath2)" fill="none" x1="393" x2="393" y1="556" y2="554"/>
<line clip-path="url(#clipPath2)" fill="none" x1="407" x2="407" y1="35" y2="37"/>
<line clip-path="url(#clipPath2)" fill="none" x1="407" x2="407" y1="556" y2="554"/>
<line clip-path="url(#clipPath2)" fill="none" x1="421" x2="421" y1="35" y2="37"/>
<line clip-path="url(#clipPath2)" fill="none" x1="421" x2="421" y1="556" y2="554"/>
<line clip-path="url(#clipPath2)" fill="none" x1="435" x2="435" y1="35" y2="37"/>
<line clip-path="url(#clipPath2)" fill="none" x1="435" x2="435" y1="556" y2="554"/>
<line clip-path="url(#clipPath2)" fill="none" x1="449" x2="449" y1="33" y2="37"/>
<line clip-path="url(#clipPath2)" fill="none" x1="449" x2="449" y1="558" y2="554"/>
<text font-size="11" x="440" y="29" clip-path="url(#clipPath2)" stroke="none" xml:space="preserve">0.60</text>
<text font-size="11" x="440" y="570" clip-path="url(#clipPath2)" stroke="none" xml:space="preserve">0.60</text>
<line clip-path="url(#clipPath2)" fill="none" x1="463" x2="463" y1="35" y2="37"/>
<line clip-path="url(#clipPath2)" fill="none" x1="463" x2="463" y1="556" y2="554"/>
<line clip-path="url(#clipPath2)" fill="none" x1="477" x2="477" y1="35" y2="37"/>
<line clip-path="url(#clipPath2)" fill="none" x1="477" x2="477" y1="556" y2="554"/>
<line clip-path="url(#clipPath2)" fill="none" x1="491" x2="491" y1="35" y2="37"/>
<line clip-path="url(#clipPath2)" fill="none" x1="491" x2="491" y1="556" y2="554"/>
<line clip-path="url(#clipPath2)" fill="none" x1="505" x2="505" y1="35" y2="37"/>
<line clip-path="url(#clipPath2)" fill="none" x1="505" x2="505" y1="556" y2="554"/>
<line clip-path="url(#clipPath2)" fill="none" x1="519" x2="519" y1="33" y2="37"/>
<line clip-path="url(#clipPath2)" fill="none" x1="519" x2="519" y1="558" y2="554"/>
<text font-size="11" x="510" y="29" clip-path="url(#clipPath2)" stroke="none" xml:space="preserve">0.70</text>
<text font-size="11" x="510" y="570" clip-path="url(#clipPath2)" stroke="none" xml:space="preserve">0.70</text>
<line clip-path="url(#clipPath2)" fill="none" x1="533" x2="533" y1="35" y2="37"/>
<line clip-path="url(#clipPath2)" fill="none" x1="533" x2="533" y1="556" y2="554"/>
<line clip-path="url(#clipPath2)" fill="none" x1="547" x2="547" y1="35" y2="37"/>
<line clip-path="url(#clipPath2)" fill="none" x1="547" x2="547" y1="556" y2="554"/>
<line clip-path="url(#clipPath2)" fill="none" x1="561" x2="561" y1="35" y2="37"/>
<line clip-path="url(#clipPath2)" fill="none" x1="561" x2="561" y1="556" y2="554"/>
<line clip-path="url(#clipPath2)" fill="none" x1="575" x2="575" y1="35" y2="37"/>
<line clip-path="url(#clipPath2)" fill="none" x1="575" x2="575" y1="556" y2="554"/>
<line clip-path="url(#clipPath2)" fill="none" x1="589" x2="589" y1="33" y2="37"/>
<line clip-path="url(#clipPath2)" fill="none" x1="589" x2="589" y1="558" y2="554"/>
<text font-size="11" x="580" y="29" clip-path="url(#clipPath2)" stroke="none" xml:space="preserve">0.80</text>
<text font-size="11" x="580" y="570" clip-path="url(#clipPath2)" stroke="none" xml:space="preserve">0.80</text>
<line clip-path="url(#clipPath2)" fill="none" x1="604" x2="604" y1="35" y2="37"/>
<line clip-path="url(#clipPath2)" fill="none" x1="604" x2="604" y1="556" y2="554"/>
<line clip-path="url(#clipPath2)" fill="none" x1="618" x2="618" y1="35" y2="37"/>
<line clip-path="url(#clipPath2)" fill="none" x1="618" x2="618" y1="556" y2="554"/>
<line clip-path="url(#clipPath2)" fill="none" x1="632" x2="632" y1="35" y2="37"/>
<line clip-path="url(#clipPath2)" fill="none" x1="632" x2="632" y1="556" y2="554"/>
<line clip-path="url(#clipPath2)" fill="none" x1="646" x2="646" y1="35" y2="37"/>
<line clip-path="url(#clipPath2)" fill="none" x1="646" x2="646" y1="556" y2="554"/>
<line clip-path="url(#clipPath2)" fill="none" x1="660" x2="660" y1="33" y2="37"/>
<line clip-path="url(#clipPath2)" fill="none" x1="660" x2="660" y1="558" y2="554"/>
<text font-size="11" x="651" y="29" clip-path="url(#clipPath2)" stroke="none" xml:space="preserve">0.90</text>
<text font-size="11" x="651" y="570" clip-path="url(#clipPath2)" stroke="none" xml:space="preserve">0.90</text>
<line clip-path="url(#clipPath2)" fill="none" x1="674" x2="674" y1="35" y2="37"/>
<line clip-path="url(#clipPath2)" fill="none" x1="674" x2="674" y1="556" y2="554"/>
<line clip-path="url(#clipPath2)" fill="none" x1="688" x2="688" y1="35" y2="37"/>
<line clip-path="url(#clipPath2)" fill="none" x1="688" x2="688" y1="556" y2="554"/>
<line clip-path="url(#clipPath2)" fill="none" x1="702" x2="702" y1="35" y2="37"/>
<line clip-path="url(#clipPath2)" fill="none" x1="702" x2="702" y1="556" y2="554"/>
<line clip-path="url(#clipPath2)" fill="none" x1="716" x2="716" y1="35" y2="37"/>
<line clip-path="url(#clipPath2)" fill="none" x1="716" x2="716" y1="556" y2="554"/>
<line clip-path="url(#clipPath2)" fill="none" x1="730" x2="730" y1="33" y2="37"/>
<line clip-path="url(#clipPath2)" fill="none" x1="730" x2="730" y1="558" y2="554"/>
<text font-size="11" x="721" y="29" clip-path="url(#clipPath2)" stroke="none" xml:space="preserve">1.00</text>
<text font-size="11" x="721" y="570" clip-path="url(#clipPath2)" stroke="none" xml:space="preserve">1.00</text>
<line clip-path="url(#clipPath2)" fill="none" x1="27" x2="27" y1="39" y2="552"/>
<line clip-path="url(#clipPath2)" fill="none" x1="741" x2="741" y1="39" y2="552"/>
<line clip-path="url(#clipPath2)" fill="none" x1="23" x2="27" y1="552" y2="552"/>
<line clip-path="url(#clipPath2)" fill="none" x1="745" x2="741" y1="552" y2="552"/>
<text font-size="11" x="17" y="556" clip-path="url(#clipPath2)" stroke="none" xml:space="preserve">0</text>
<text font-size="11" x="748" y="556" clip-path="url(#clipPath2)" stroke="none" xml:space="preserve">0</text>
<line clip-path="url(#clipPath2)" fill="none" x1="25" x2="27" y1="513" y2="513"/>
<line clip-path="url(#clipPath2)" fill="none" x1="743" x2="741" y1="513" y2="513"/>
<line clip-path="url(#clipPath2)" fill="none" x1="23" x2="27" y1="475" y2="475"/>
<line clip-path="url(#clipPath2)" fill="none" x1="745" x2="741" y1="475" y2="475"/>
<text font-size="11" x="7" y="479" clip-path="url(#clipPath2)" stroke="none" xml:space="preserve">0.2</text>
<text font-size="11" x="748" y="479" clip-path="url(#clipPath2)" stroke="none" xml:space="preserve">0.2</text>
<line clip-path="url(#clipPath2)" fill="none" x1="25" x2="27" y1="436" y2="436"/>
<line clip-path="url(#clipPath2)" fill="none" x1="743" x2="741" y1="436" y2="436"/>
<line clip-path="url(#clipPath2)" fill="none" x1="23" x2="27" y1="398" y2="398"/>
<line clip-path="url(#clipPath2)" fill="none" x1="745" x2="741" y1="398" y2="398"/>
<text font-size="11" x="7" y="402" clip-path="url(#clipPath2)" stroke="none" xml:space="preserve">0.4</text>
<text font-size="11" x="748" y="402" clip-path="url(#clipPath2)" stroke="none" xml:space="preserve">0.4</text>
<line clip-path="url(#clipPath2)" fill="none" x1="25" x2="27" y1="359" y2="359"/>
<line clip-path="url(#clipPath2)" fill="none" x1="743" x2="741" y1="359" y2="359"/>
<line clip-path="url(#clipPath2)" fill="none" x1="23" x2="27" y1="321" y2="321"/>
<line clip-path="url(#clipPath2)" fill="none" x1="745" x2="741" y1="321" y2="321"/>
<text font-size="11" x="7" y="325" clip-path="url(#clipPath2)" stroke="none" xml:space="preserve">0.6</text>
<text font-size="11" x="748" y="325" clip-path="url(#clipPath2)" stroke="none" xml:space="preserve">0.6</text>
<line clip-path="url(#clipPath2)" fill="none" x1="25" x2="27" y1="282" y2="282"/>
<line clip-path="url(#clipPath2)" fill="none" x1="743" x2="741" y1="282" y2="282"/>
<line clip-path="url(#clipPath2)" fill="none" x1="23" x2="27" y1="244" y2="244"/>
<line clip-path="url(#clipPath2)" fill="none" x1="745" x2="741" y1="244" y2="244"/>
<text font-size="11" x="7" y="248" clip-path="url(#clipPath2)" stroke="none" xml:space="preserve">0.8</text>
<text font-size="11" x="748" y="248" clip-path="url(#clipPath2)" stroke="none" xml:space="preserve">0.8</text>
<line clip-path="url(#clipPath2)" fill="none" x1="25" x2="27" y1="205" y2="205"/>
<line clip-path="url(#clipPath2)" fill="none" x1="743" x2="741" y1="205" y2="205"/>
<line clip-path="url(#clipPath2)" fill="none" x1="23" x2="27" y1="167" y2="167"/>
<line clip-path="url(#clipPath2)" fill="none" x1="745" x2="741" y1="167" y2="167"/>
<text font-size="11" x="7" y="171" clip-path="url(#clipPath2)" stroke="none" xml:space="preserve">1.0</text>
<text font-size="11" x="748" y="171" clip-path="url(#clipPath2)" stroke="none" xml:space="preserve">1.0</text>
<line clip-path="url(#clipPath2)" fill="none" x1="25" x2="27" y1="128" y2="128"/>
<line clip-path="url(#clipPath2)" fill="none" x1="743" x2="741" y1="128" y2="128"/>
<line clip-path="url(#clipPath2)" fill="none" x1="23" x2="27" y1="90" y2="90"/>
<line clip-path="url(#clipPath2)" fill="none" x1="745" x2="741" y1="90" y2="90"/>
<text font-size="11" x="7" y="94" clip-path="url(#clipPath2)" stroke="none" xml:space="preserve">1.2</text>
<text font-size="11" x="748" y="94" clip-path="url(#clipPath2)" stroke="none" xml:space="preserve">1.2</text>
<line clip-path="url(#clipPath2)" fill="none" x1="25" x2="27" y1="51" y2="51"/>
<line clip-path="url(#clipPath2)" fill="none" x1="743" x2="741" y1="51" y2="51"/>
</g>
</g>
</svg>
